<svg xmlns="http://www.w3.org/2000/svg" aria-hidden="true" style="position:absolute;width:0;height:0;overflow:hidden"><defs><symbol id="icon-arrow-big-left" viewBox="0 0 36 32"><path d="M1.06 14.586a2 2 0 0 0 0 2.829l12.728 12.728a2 2 0 1 0 2.828-2.828L5.302 16.001 16.616 4.687a2 2 0 1 0-2.828-2.828L1.06 14.587zM34.859 14H2.474v4h32.385v-4z"/></symbol><symbol id="icon-arrow-big-right" viewBox="0 0 36 32"><path d="M34.94 17.414a2 2 0 0 0 0-2.829L22.212 1.857a2 2 0 1 0-2.828 2.828l11.314 11.314-11.314 11.314a2 2 0 1 0 2.828 2.828L34.94 17.413zM1.141 18h32.385v-4H1.141v4z"/></symbol><symbol id="icon-arrow-small-bottom" viewBox="0 0 30 32"><path d="m30.118 15.991-1.686-1.686-12.175 12.193V.941h-2.396V26.48L1.686 14.305 0 15.991l15.068 15.068 15.05-15.068z"/></symbol><symbol id="icon-arrow-small-right" viewBox="0 0 32 32"><path d="M15.991 0 14.2 1.791l12.955 12.936H.001v2.546h27.135L14.2 30.209 15.991 32 32 15.991 15.991 0z"/></symbol><symbol id="icon-logo-adrespect" viewBox="0 0 151 32"><path fill="#003edc" d="M14.166 6.303a10.069 10.069 0 0 1 3.474.619c2.081.769 3.846 2.2 5.038 4.046a11.845 11.845 0 0 0-6.03-8.87A11.545 11.545 0 0 0 11.067.667c-1.705 0-4.355.363-5.816 1.024-2.188.8-3.619 2.101-5.252 3.575l6.765 4.275a10.047 10.047 0 0 1 7.401-3.237z" style="fill:var(--color1, #003edc)"/><path fill="#003edc" d="M21.289 15.941h-.004c-.205.017-.41.03-.611.039h-.051a10.1 10.1 0 0 1-7.893-3.488 10.209 10.209 0 0 1-2.149-4.007 10.229 10.229 0 0 0-3.051 2.248 10.241 10.241 0 0 0-2.487 4.669l-.205 1.167-.816 4.677-.192 1.089.709-.614 1.192-1.037-.192-2.611a5.006 5.006 0 0 1-.064-.808v-.026l6.914.156c-1.124.519-3.107 2.265-3.88 3.086l-.009.013c-.175.186-.342.376-.504.575l-.59 2.395-.068.277h.004l-.167.674-.03.125-1.671 6.795 6.303-3.411.06-.315.239-1.271a4.74 4.74 0 0 1 .077-.315 10.706 10.706 0 0 1 .363-1.119c1.44-3.791 3.248-4.655 3.128-4.655.094-.078.197-.151.299-.22.876-.618 2.021-1.063 3.261-1.236.188-.026.402-.048.624-.052l.06-.004 1.141-1.284 1.508-1.703-.081.017a9.794 9.794 0 0 1-1.167.177z" style="fill:var(--color1, #003edc)"/><path fill="#f5f0ec" d="M94.571 19.187a4.049 4.049 0 0 0-1.791-1.141c-.709-.225-1.632-.45-2.791-.67a22.27 22.27 0 0 1-2.213-.493c-.538-.16-.991-.402-1.35-.743-.359-.346-.538-.791-.538-1.344 0-.726.316-1.31.961-1.759.633-.445 1.577-.674 2.833-.674 1.654 0 3.09.415 4.286 1.262l.859-1.599c-.615-.406-1.385-.735-2.32-.99a10.684 10.684 0 0 0-2.825-.389c-1.816 0-3.226.398-4.239 1.184-1.013.778-1.513 1.794-1.513 3.017 0 .99.252 1.768.756 2.325a4.144 4.144 0 0 0 1.833 1.193c.727.233 1.675.458 2.859.683.885.151 1.59.298 2.124.458.543.16.983.393 1.329.7.35.311.526.739.526 1.271 0 .769-.316 1.366-.953 1.781s-1.615.627-2.944.627c-1 0-1.961-.147-2.876-.458-.927-.311-1.684-.7-2.295-1.193l-.889 1.569c.611.523 1.457.96 2.53 1.301 1.077.35 2.214.523 3.393.523 1.876 0 3.35-.389 4.41-1.133 1.06-.756 1.59-1.777 1.59-3.069 0-.947-.244-1.694-.752-2.239zM139.611 21.698l1.467 1.011a5.599 5.599 0 0 1-2.351 2.165c-1 .501-2.12.748-3.351.748-1.444 0-2.73-.32-3.859-.951a6.928 6.928 0 0 1-2.675-2.676c-.645-1.15-.97-2.442-.97-3.881 0-1.426.325-2.719.97-3.855a6.882 6.882 0 0 1 2.675-2.658c1.128-.635 2.415-.955 3.859-.955 1.252 0 2.372.255 3.364.743a5.598 5.598 0 0 1 2.337 2.166l-1.467 1.011a4.762 4.762 0 0 0-1.833-1.643 5.35 5.35 0 0 0-2.401-.54c-1.055 0-2.004.233-2.833.713-.846.48-1.5 1.15-1.974 2.023-.462.886-.692 1.876-.692 2.995 0 1.141.231 2.144.692 3.017a5.06 5.06 0 0 0 1.974 2.014c.829.471 1.778.718 2.833.718.864 0 1.667-.181 2.401-.536a4.55 4.55 0 0 0 1.833-1.629zM149.964 23.211a2.713 2.713 0 0 1-.979.553 3.29 3.29 0 0 1-1.179.203c-.816 0-1.436-.238-1.868-.691-.431-.45-.653-1.12-.653-1.997v-8.783h4.427v-1.681h-4.427v-3.22h-1.957v13.793c0 1.361.368 2.421 1.103 3.164.739.752 1.791 1.124 3.153 1.124.591 0 1.159-.087 1.705-.268.539-.182 1-.437 1.372-.765l-.697-1.431zM34.983 21.267c-.235.635-.611 1.124-1.167 1.457-.543.328-1.167.488-1.867.488-.722 0-1.286-.147-1.697-.463a1.518 1.518 0 0 1-.624-1.271c0-1.115.842-1.677 2.53-1.677h2.825v1.465zm2.337-8.432c-1.175-1.059-2.863-1.595-5.06-1.595a12.36 12.36 0 0 0-3.333.454c-1.077.307-2.013.735-2.782 1.284l1.474 2.905c.513-.406 1.137-.731 1.867-.977a7.23 7.23 0 0 1 2.222-.354c1.094 0 1.906.242 2.444.73.555.488.829 1.189.829 2.092h-3.273c-2.068 0-3.607.389-4.602 1.145-.996.765-1.487 1.824-1.487 3.155 0 .83.209 1.582.637 2.23.419.661 1.03 1.18 1.825 1.556.803.363 1.748.558 2.846.558 2.107 0 3.543-.67 4.312-2.001v1.789h3.85v-8.191c0-2.131-.586-3.726-1.769-4.78zM60.42 17.567h-5.158V7.742h5.158c1.919 0 3.385.424 4.393 1.279 1.013.843 1.517 2.053 1.517 3.644 0 1.556-.504 2.753-1.517 3.618-1.008.851-2.474 1.284-4.393 1.284zm-10.059 3.947c-.684.718-1.547 1.085-2.581 1.085-1.055 0-1.923-.367-2.607-1.085-.697-.713-1.038-1.673-1.038-2.887 0-1.206.342-2.17 1.038-2.892.684-.722 1.551-1.085 2.607-1.085 1.034 0 1.897.363 2.581 1.085s1.021 1.686 1.021 2.892c0 1.215-.337 2.174-1.021 2.887zm13.602-2.684c1.41-.467 2.504-1.228 3.273-2.282.761-1.059 1.15-2.343 1.15-3.881 0-2.088-.705-3.73-2.107-4.923-1.406-1.193-3.342-1.79-5.807-1.79l-9.166.065v6.955c-1.017-1.158-2.431-1.738-4.239-1.738-1.337 0-2.551.307-3.624.916-1.085.597-1.927 1.457-2.551 2.581-.615 1.124-.915 2.416-.915 3.894 0 1.474.299 2.775.915 3.89.624 1.12 1.466 1.984 2.551 2.585 1.073.609 2.286.912 3.624.912 1.927 0 3.406-.618 4.427-1.867v1.655h3.927v-6.475h5.051c.539 0 1.051-.026 1.551-.082l4.423 6.298h2.248l-4.73-6.713zM71.232 17.259c.128-1.465.662-2.632 1.624-3.544.944-.903 2.115-1.353 3.517-1.353 1.423 0 2.602.45 3.564 1.353.949.912 1.487 2.079 1.611 3.544H71.232zm12.205.86c0-1.448-.308-2.74-.919-3.864-.611-1.132-1.444-2.019-2.517-2.645-1.068-.644-2.274-.964-3.628-.964-1.346 0-2.555.32-3.632.964a6.643 6.643 0 0 0-2.543 2.654c-.62 1.141-.927 2.429-.927 3.856 0 1.439.316 2.732.97 3.873a6.929 6.929 0 0 0 2.688 2.663c1.158.653 2.479.973 3.974.973 1.158 0 2.222-.203 3.192-.618a6.092 6.092 0 0 0 2.423-1.794l-1.103-1.292a5.4 5.4 0 0 1-1.966 1.452 6.28 6.28 0 0 1-2.496.493c-1.598 0-2.927-.48-3.983-1.418-1.043-.942-1.619-2.174-1.739-3.713h12.17l.034-.618z" style="fill:var(--color2, #f5f0ec)"/><path fill="#f5f0ec" d="M94.572 19.183c.508.545.748 1.288.748 2.239 0 1.288-.526 2.313-1.59 3.069-1.055.748-2.53 1.133-4.406 1.133-1.179 0-2.316-.173-3.393-.523-1.077-.341-1.919-.778-2.53-1.301l.885-1.569c.611.493 1.372.886 2.299 1.197a8.985 8.985 0 0 0 2.876.458c1.329 0 2.308-.216 2.94-.631.645-.415.961-1.011.961-1.781 0-.532-.179-.96-.53-1.266-.346-.311-.791-.545-1.325-.705-.538-.16-1.243-.311-2.132-.458-1.179-.225-2.128-.449-2.855-.683a4.102 4.102 0 0 1-1.833-1.193c-.504-.553-.761-1.331-.761-2.325 0-1.223.509-2.239 1.521-3.017 1.009-.787 2.423-1.18 4.235-1.18.936 0 1.876.125 2.825.38.94.259 1.705.588 2.32.994l-.855 1.599c-1.201-.843-2.637-1.258-4.29-1.258-1.252 0-2.201.22-2.833.67-.645.45-.961 1.033-.961 1.759 0 .553.179 1.003.538 1.344s.812.584 1.35.743c.526.151 1.265.32 2.213.493 1.158.225 2.085.445 2.791.67a4.058 4.058 0 0 1 1.791 1.141zM109.25 21.119c-.479.882-1.12 1.556-1.953 2.031a5.514 5.514 0 0 1-2.769.718c-1.038 0-1.966-.247-2.773-.718a4.995 4.995 0 0 1-1.94-2.031c-.474-.877-.705-1.876-.705-3 0-1.115.231-2.105.705-2.974a5.138 5.138 0 0 1 1.94-2.032c.808-.484 1.735-.726 2.773-.726 1.021 0 1.936.242 2.769.726a5.176 5.176 0 0 1 1.953 2.032c.47.869.701 1.859.701 2.974 0 1.124-.231 2.122-.701 3zm1.722-6.89a6.723 6.723 0 0 0-2.598-2.645c-1.107-.618-2.342-.938-3.705-.938-1.218 0-2.316.268-3.286.791a6.185 6.185 0 0 0-2.329 2.239v-2.909h-1.885v20.147h1.97v-8.195a5.99 5.99 0 0 0 2.329 2.161c.961.501 2.021.748 3.201.748 1.385 0 2.628-.311 3.722-.938a6.625 6.625 0 0 0 2.581-2.645c.637-1.141.944-2.442.944-3.925 0-1.448-.308-2.749-.944-3.89zM114.889 17.259c.137-1.465.671-2.632 1.624-3.544.944-.903 2.128-1.353 3.526-1.353 1.414 0 2.607.45 3.555 1.353.949.912 1.487 2.079 1.611 3.544h-10.316zm12.204.86c0-1.448-.308-2.74-.919-3.864-.603-1.132-1.444-2.019-2.517-2.645-1.068-.644-2.282-.964-3.619-.964-1.346 0-2.56.32-3.645.964-1.077.627-1.927 1.513-2.538 2.654-.62 1.141-.927 2.429-.927 3.856 0 1.439.325 2.732.97 3.873a6.897 6.897 0 0 0 2.696 2.663c1.15.653 2.479.973 3.961.973 1.171 0 2.235-.203 3.205-.618a6.09 6.09 0 0 0 2.414-1.794l-1.107-1.292a5.284 5.284 0 0 1-1.961 1.452 6.28 6.28 0 0 1-2.483.493c-1.615 0-2.944-.48-3.987-1.418-1.051-.942-1.632-2.174-1.748-3.713h12.17l.034-.618zM150.665 24.637c-.368.333-.833.588-1.372.769a5.388 5.388 0 0 1-1.705.268c-1.359 0-2.413-.376-3.153-1.12-.735-.748-1.107-1.802-1.107-3.168V7.593h1.961v3.22h4.428v1.681h-4.428v8.787c0 .873.223 1.543.655 1.993.431.458 1.055.691 1.867.691.411 0 .799-.065 1.18-.203.38-.125.705-.307.979-.553l.696 1.426z" style="fill:var(--color2, #f5f0ec)"/></symbol><symbol id="icon-logo" viewBox="0 0 184 32"><path d="M7.392 31.2c-2.005 0-3.744-.352-5.216-1.056C.725 29.461 0 28.405 0 26.976c0-.853.352-1.611 1.056-2.272.725-.661 1.643-1.205 2.752-1.632 1.109-.448 2.368-.843 3.776-1.184.277-.085.501-.139.672-.16l.608.64c-.939.299-1.707.608-2.304.928s-1.056.683-1.376 1.088c-.32.384-.48.811-.48 1.28 0 .661.299 1.12.896 1.376.619.277 1.429.416 2.432.416.96 0 1.877-.107 2.752-.32.896-.213 1.632-.523 2.208-.928s.864-.885.864-1.44c0-.363-.16-.651-.48-.864s-.768-.32-1.344-.32c-.512 0-1.035.053-1.568.16a25.99 25.99 0 0 0-1.984.416c-.683.192-1.269.331-1.76.416a6.482 6.482 0 0 1-3.808-.288c-.725-.32-1.312-.747-1.76-1.28a3.014 3.014 0 0 1-.64-1.888c0-.981.491-1.835 1.472-2.56 1.003-.747 2.379-1.397 4.128-1.952l1.056.928c-.277.085-.533.171-.768.256-.555.192-.971.405-1.248.64s-.416.555-.416.96c0 .341.139.597.416.768.299.171.672.256 1.12.256.491 0 1.003-.032 1.536-.096A28.055 28.055 0 0 0 9.472 20c.917-.171 1.717-.299 2.4-.384s1.429-.128 2.24-.128c1.429 0 2.613.341 3.552 1.024.96.683 1.44 1.728 1.44 3.136 0 1.621-.608 2.997-1.824 4.128-1.195 1.152-2.699 2.005-4.512 2.56-1.813.576-3.605.864-5.376.864zm1.344-12.32c-1.515 0-2.859-.256-4.032-.768-1.152-.533-2.059-1.269-2.72-2.208-.64-.939-.96-1.995-.96-3.168 0-1.152.32-2.187.96-3.104.661-.939 1.579-1.664 2.752-2.176 1.173-.533 2.507-.8 4-.8.917 0 1.653.075 2.208.224.576.149 1.195.352 1.856.608.256.107.491.203.704.288.235.064.459.096.672.096.555 0 .949-.192 1.184-.576s.352-.885.352-1.504l4.032 1.28c-.021.811-.352 1.44-.992 1.888-.619.427-1.44.64-2.464.64a52.76 52.76 0 0 0-.864-.064c.683.939 1.024 2.005 1.024 3.2a5.374 5.374 0 0 1-.992 3.168c-.64.939-1.547 1.675-2.72 2.208-1.173.512-2.507.768-4 .768zm0-3.136c.533 0 1.003-.128 1.408-.384s.715-.608.928-1.056a3.75 3.75 0 0 0 .32-1.568c0-.853-.245-1.557-.736-2.112-.469-.555-1.109-.832-1.92-.832-.533 0-1.003.128-1.408.384s-.725.608-.96 1.056c-.213.448-.32.949-.32 1.504 0 .875.245 1.6.736 2.176.512.555 1.163.832 1.952.832zM20.9 7.104h5.056v13.248c0 1.515.075 2.901.224 4.16H20.9V7.104zM20.836.8h5.152v4.448h-5.152V.8zM44.292 24.96c-1.365 0-2.432-.395-3.2-1.184s-1.152-1.941-1.152-3.456v-6.912c0-1.024-.245-1.792-.736-2.304-.469-.533-1.195-.8-2.176-.8-1.024 0-2.016.299-2.976.896s-1.792 1.472-2.496 2.624L28.1 11.136c1.216-1.472 2.624-2.581 4.224-3.328 1.621-.768 3.371-1.152 5.248-1.152 1.749 0 3.168.277 4.256.832 1.088.533 1.888 1.301 2.4 2.304.512.981.768 2.144.768 3.488v7.296c.021.363.107.629.256.8s.363.256.64.256c.235 0 .459-.011.672-.032.235-.043.48-.107.736-.192l-.64 3.104a5.133 5.133 0 0 1-1.152.32 5.911 5.911 0 0 1-1.216.128zm-10.432 0c-1.749 0-3.136-.448-4.16-1.344-1.003-.917-1.504-2.091-1.504-3.52 0-1.259.469-2.379 1.408-3.36.939-1.003 2.336-1.813 4.192-2.432s4.139-1.035 6.848-1.248v3.2c-1.643.149-2.997.363-4.064.64-1.045.277-1.835.629-2.368 1.056-.512.405-.768.896-.768 1.472 0 .469.171.853.512 1.152.363.277.853.416 1.472.416.832 0 1.589-.181 2.272-.544s1.227-.875 1.632-1.536c.405-.661.608-1.44.608-2.336l.992.288c0 1.365-.245 2.667-.736 3.904a6.88 6.88 0 0 1-2.336 3.008c-1.045.789-2.379 1.184-4 1.184zM48.682 7.104h5.088v4.16c.683-1.472 1.493-2.603 2.432-3.392.939-.811 1.909-1.216 2.912-1.216.597 0 1.131.096 1.6.288a6.39 6.39 0 0 1 1.408.736l-2.048 4.448c-.448-.299-.853-.512-1.216-.64a3.265 3.265 0 0 0-1.248-.224c-.683 0-1.312.203-1.888.608-.576.384-1.045.971-1.408 1.76s-.544 1.739-.544 2.848v3.872c0 1.515.075 2.901.224 4.16h-5.312V7.104zM69.762 24.96c-1.664 0-3.115-.373-4.352-1.12-1.237-.768-2.197-1.835-2.88-3.2-.661-1.387-.992-2.997-.992-4.832s.331-3.435.992-4.8c.683-1.387 1.643-2.453 2.88-3.2 1.237-.768 2.688-1.152 4.352-1.152 1.173 0 2.272.299 3.296.896s1.856 1.419 2.496 2.464V1.632H80v18.72c0 1.515.085 2.901.256 4.16h-4.702v-3.04c-.619 1.088-1.44 1.941-2.464 2.56a6.211 6.211 0 0 1-3.328.928zm-2.88-9.152c0 1.045.181 1.973.544 2.784.363.789.864 1.408 1.504 1.856.64.427 1.397.64 2.272.64.789 0 1.515-.224 2.176-.672s1.184-1.035 1.568-1.76a4.897 4.897 0 0 0 .608-2.368v-.96c0-.875-.203-1.675-.608-2.4s-.949-1.301-1.632-1.728c-.661-.448-1.365-.672-2.112-.672-.875 0-1.632.224-2.272.672-.64.427-1.141 1.045-1.504 1.856-.363.789-.544 1.707-.544 2.752zM91.269 24.96c-1.621 0-3.061-.384-4.32-1.152s-2.24-1.845-2.944-3.232c-.683-1.387-1.024-2.976-1.024-4.768s.341-3.381 1.024-4.768c.704-1.387 1.685-2.464 2.944-3.232s2.699-1.152 4.32-1.152c1.387 0 2.645.373 3.776 1.12 1.152.725 2.037 1.717 2.656 2.976v-9.12h2.912v18.72c0 1.536.053 2.923.16 4.16h-3.072v-3.68a7.178 7.178 0 0 1-2.624 3.008c-1.131.747-2.4 1.12-3.808 1.12zm-5.152-9.152c0 1.323.245 2.507.736 3.552.491 1.024 1.173 1.824 2.048 2.4s1.877.864 3.008.864a5.323 5.323 0 0 0 2.912-.832 6.07 6.07 0 0 0 2.112-2.176c.512-.917.768-1.92.768-3.008v-1.6a5.881 5.881 0 0 0-.8-3.008 5.747 5.747 0 0 0-2.112-2.176 5.27 5.27 0 0 0-2.88-.832c-1.131 0-2.133.288-3.008.864s-1.557 1.387-2.048 2.432c-.491 1.024-.736 2.197-.736 3.52zM112.473 24.96c-1.579 0-3.04-.331-4.384-.992s-2.421-1.643-3.232-2.944c-.789-1.301-1.184-2.88-1.184-4.736s.373-3.509 1.12-4.96c.768-1.472 1.813-2.613 3.136-3.424 1.344-.832 2.869-1.248 4.576-1.248 1.749 0 3.232.395 4.448 1.184s2.133 1.909 2.752 3.36c.64 1.429.96 3.104.96 5.024h-15.552v-2.272h13.6l-1.056.928c0-1.131-.203-2.144-.608-3.04-.405-.917-1.003-1.632-1.792-2.144-.768-.512-1.685-.768-2.752-.768-1.152 0-2.165.299-3.04.896-.853.576-1.525 1.419-2.016 2.528-.491 1.088-.736 2.357-.736 3.808 0 1.472.267 2.699.8 3.68s1.237 1.707 2.112 2.176c.875.448 1.835.672 2.88.672 1.515 0 2.773-.395 3.776-1.184a6.63 6.63 0 0 0 2.208-2.976l2.432 1.696c-1.003 1.536-2.219 2.709-3.648 3.52s-3.029 1.216-4.8 1.216zM130.924 24.96c-1.813 0-3.509-.395-5.088-1.184-1.557-.811-2.805-1.92-3.744-3.328l2.176-1.792c.597 1.301 1.493 2.315 2.688 3.04 1.216.725 2.56 1.088 4.032 1.088.768 0 1.451-.107 2.048-.32.597-.235 1.067-.555 1.408-.96.341-.427.512-.928.512-1.504 0-.619-.224-1.131-.672-1.536-.448-.427-1.003-.757-1.664-.992-.64-.256-1.536-.533-2.688-.832-1.429-.384-2.592-.747-3.488-1.088a6.694 6.694 0 0 1-2.272-1.536c-.619-.661-.928-1.536-.928-2.624 0-.917.267-1.739.8-2.464s1.291-1.28 2.272-1.664c.981-.405 2.091-.608 3.328-.608 1.557 0 2.997.267 4.32.8 1.344.533 2.528 1.483 3.552 2.848l-2.176 1.792c-.512-1.067-1.291-1.877-2.336-2.432s-2.176-.832-3.392-.832c-1.045 0-1.899.213-2.56.64-.64.405-.96.949-.96 1.632 0 .555.203 1.013.608 1.376.427.363.949.661 1.568.896.619.213 1.461.459 2.528.736 1.493.405 2.699.789 3.616 1.152a6.247 6.247 0 0 1 2.4 1.632c.683.704 1.024 1.643 1.024 2.816 0 1.067-.309 2.005-.928 2.816-.619.789-1.451 1.397-2.496 1.824-1.024.405-2.187.608-3.488.608zM140.537 7.104h2.912v13.248c0 1.536.053 2.923.16 4.16h-3.072V7.104zm-.192-5.728h3.296V4.48h-3.296V1.376zM152.469 31.2c-1.792 0-3.328-.363-4.608-1.088s-1.92-1.792-1.92-3.2c0-.789.277-1.493.832-2.112s1.301-1.141 2.24-1.568c.939-.448 2.059-.832 3.36-1.152.256-.064.48-.117.672-.16l.384.512c-.981.32-1.803.661-2.464 1.024-.661.341-1.184.747-1.568 1.216s-.576 1.024-.576 1.664c0 .896.395 1.557 1.184 1.984.811.427 1.813.64 3.008.64 1.28 0 2.528-.192 3.744-.576 1.237-.384 2.24-.928 3.008-1.632.768-.683 1.152-1.472 1.152-2.368 0-.619-.213-1.099-.64-1.44-.426-.363-1.045-.544-1.856-.544-.512 0-1.067.064-1.664.192-.576.107-1.365.288-2.368.544-.832.235-1.525.416-2.08.544a7.875 7.875 0 0 1-1.472.16 6.955 6.955 0 0 1-2.144-.32c-.64-.235-1.163-.565-1.568-.992a2.336 2.336 0 0 1-.576-1.568c0-.896.448-1.685 1.344-2.368.896-.704 2.101-1.259 3.616-1.664l.608.8a6.616 6.616 0 0 0-1.12.416c-.64.256-1.109.555-1.408.896-.299.32-.448.672-.448 1.056 0 .427.192.725.576.896s.885.256 1.504.256c.533 0 1.088-.053 1.664-.16a62.871 62.871 0 0 0 1.984-.48 26.554 26.554 0 0 1 2.304-.512 10.752 10.752 0 0 1 2.048-.192c1.451 0 2.614.341 3.488 1.024.875.683 1.312 1.675 1.312 2.976 0 1.472-.576 2.763-1.728 3.872-1.13 1.109-2.592 1.952-4.384 2.528a16.92 16.92 0 0 1-5.44.896zm1.728-12.512c-1.365 0-2.571-.256-3.616-.768-1.045-.533-1.867-1.259-2.464-2.176-.576-.917-.864-1.941-.864-3.072s.288-2.155.864-3.072c.597-.917 1.419-1.632 2.464-2.144 1.067-.533 2.272-.8 3.616-.8.917 0 1.675.096 2.272.288s1.227.448 1.888.768c.363.192.672.341.928.448.256.085.523.128.8.128.64 0 1.099-.192 1.376-.576.299-.405.448-.928.448-1.568l2.432.832c-.021.853-.352 1.504-.992 1.952s-1.386.672-2.24.672c-.213 0-.501-.021-.864-.064.619.896.928 1.941.928 3.136 0 1.131-.288 2.155-.864 3.072s-1.397 1.643-2.464 2.176c-1.067.512-2.283.768-3.648.768zm0-1.952c.832 0 1.547-.171 2.144-.512a3.659 3.659 0 0 0 1.376-1.472c.32-.64.48-1.333.48-2.08 0-1.152-.363-2.112-1.088-2.88-.704-.789-1.675-1.184-2.912-1.184-.811 0-1.525.181-2.144.544a3.659 3.659 0 0 0-1.376 1.472c-.299.597-.448 1.28-.448 2.048 0 1.173.352 2.144 1.056 2.912.725.768 1.696 1.152 2.912 1.152zM166.413 7.104h2.912v5.056a8.798 8.798 0 0 1 1.824-2.88 8.407 8.407 0 0 1 2.688-1.92 7.176 7.176 0 0 1 3.072-.704c1.301 0 2.389.256 3.264.768.896.491 1.557 1.173 1.984 2.048.448.875.672 1.888.672 3.04v7.84c0 1.536.053 2.923.16 4.16h-3.072V12.96c0-1.28-.32-2.251-.96-2.912-.619-.661-1.611-.992-2.976-.992-1.003 0-2.027.309-3.072.928-1.024.619-1.878 1.493-2.56 2.624-.683 1.109-1.024 2.4-1.024 3.872v8.032h-2.912V7.104z"/></symbol><symbol id="icon-search" viewBox="0 0 32 32"><path d="M13.333 3C7.626 3 3 7.626 3 13.333s4.626 10.333 10.333 10.333c2.493 0 4.78-.883 6.566-2.354l7.394 7.394.112.097a1 1 0 0 0 1.302-1.511l-7.394-7.394a10.288 10.288 0 0 0 2.354-6.566c0-5.707-4.626-10.333-10.333-10.333zm0 2a8.333 8.333 0 1 1 0 16.666 8.333 8.333 0 0 1 0-16.666z"/></symbol><symbol id="icon-arrow-nav" viewBox="0 0 32 32"><path d="M5.68 12.838a1.185 1.185 0 0 1 1.543-1.791l.133.115 8.643 8.643 8.643-8.643a1.185 1.185 0 0 1 1.543-.115l.133.115c.421.421.459 1.079.115 1.543l-.115.133-9.482 9.482a1.185 1.185 0 0 1-1.543.115l-.133-.115-9.482-9.482z"/></symbol></defs></svg>